<svg width="113" height="113" viewBox="0 0 113 113" fill="none" xmlns="http://www.w3.org/2000/svg">
<path d="M15.0866 15.0865C26.5818 3.59131 56.7144 15.0865 56.7144 15.0865C56.7144 15.0865 86.847 3.59131 98.3422 15.0865C109.837 26.5817 98.3422 56.7143 98.3422 56.7143C98.3422 56.7143 109.837 86.847 98.3422 98.3422C86.847 109.837 56.7144 98.3422 56.7144 98.3422C56.7144 98.3422 26.5818 109.837 15.0866 98.3422C3.59139 86.847 15.0866 56.7143 15.0866 56.7143C15.0866 56.7143 3.59139 26.5817 15.0866 15.0865Z" fill="#E5D81B"/>
<path d="M6.17623 56.5C6.17623 42.6035 31.3381 31.3381 31.3381 31.3381C31.3381 31.3381 42.6035 6.17623 56.5 6.17623C70.3965 6.17623 81.6619 31.3381 81.6619 31.3381C81.6619 31.3381 106.824 42.6035 106.824 56.5C106.824 70.3965 81.6619 81.6619 81.6619 81.6619C81.6619 81.6619 70.3965 106.824 56.5 106.824C42.6035 106.824 31.3381 81.6619 31.3381 81.6619C31.3381 81.6619 6.17623 70.3965 6.17623 56.5Z" fill="#2D2D36"/>
<path d="M56.4675 34.0429C62.6599 34.0429 67.6798 45.2553 67.6798 45.2553C67.6798 45.2553 78.8921 50.2752 78.8921 56.4676C78.8921 62.6599 67.6798 67.6799 67.6798 67.6799C67.6798 67.6799 62.6599 78.8922 56.4675 78.8922C50.2751 78.8922 45.2552 67.6799 45.2552 67.6799C45.2552 67.6799 34.0429 62.6599 34.0429 56.4676C34.0429 50.2752 45.2552 45.2553 45.2552 45.2553C45.2552 45.2553 50.2751 34.0429 56.4675 34.0429Z" fill="#E5D81B"/>
</svg>
