<svg width="251" height="90" viewBox="0 0 251 90" fill="none" xmlns="http://www.w3.org/2000/svg">
<path d="M121.809 46.8525V55.3047C121.477 55.7051 120.964 56.1396 120.271 56.6084C119.577 57.0674 118.684 57.4629 117.59 57.7949C116.496 58.127 115.173 58.293 113.62 58.293C112.243 58.293 110.988 58.0684 109.855 57.6191C108.723 57.1602 107.746 56.4912 106.926 55.6123C106.115 54.7334 105.49 53.6592 105.051 52.3896C104.611 51.1104 104.392 49.6504 104.392 48.0098V46.6768C104.392 45.0361 104.602 43.5762 105.021 42.2969C105.451 41.0176 106.062 39.9385 106.853 39.0596C107.644 38.1807 108.586 37.5117 109.68 37.0527C110.773 36.5938 111.989 36.3643 113.327 36.3643C115.183 36.3643 116.706 36.667 117.897 37.2725C119.089 37.8682 119.997 38.6982 120.622 39.7627C121.257 40.8174 121.647 42.0283 121.794 43.3955H117.531C117.424 42.6729 117.219 42.043 116.916 41.5059C116.613 40.9688 116.179 40.5488 115.612 40.2461C115.056 39.9434 114.333 39.792 113.444 39.792C112.712 39.792 112.058 39.9434 111.481 40.2461C110.915 40.5391 110.437 40.9736 110.046 41.5498C109.655 42.126 109.357 42.8389 109.152 43.6885C108.947 44.5381 108.845 45.5244 108.845 46.6475V48.0098C108.845 49.123 108.952 50.1094 109.167 50.9688C109.382 51.8184 109.699 52.5361 110.119 53.1221C110.549 53.6982 111.076 54.1328 111.701 54.4258C112.326 54.7188 113.054 54.8652 113.884 54.8652C114.577 54.8652 115.153 54.8066 115.612 54.6895C116.081 54.5723 116.457 54.4307 116.74 54.2646C117.033 54.0889 117.258 53.9229 117.414 53.7666V49.9873H113.4V46.8525H121.809ZM133.645 54.4258V47.3652C133.645 46.8574 133.562 46.4229 133.396 46.0615C133.229 45.6904 132.971 45.4023 132.619 45.1973C132.277 44.9922 131.833 44.8896 131.286 44.8896C130.817 44.8896 130.412 44.9727 130.07 45.1387C129.729 45.2949 129.465 45.5244 129.279 45.8271C129.094 46.1201 129.001 46.4668 129.001 46.8672H124.782C124.782 46.1934 124.938 45.5537 125.251 44.9482C125.563 44.3428 126.018 43.8105 126.613 43.3516C127.209 42.8828 127.917 42.5166 128.737 42.2529C129.567 41.9893 130.495 41.8574 131.521 41.8574C132.751 41.8574 133.845 42.0625 134.802 42.4727C135.759 42.8828 136.511 43.498 137.058 44.3184C137.614 45.1387 137.893 46.1641 137.893 47.3945V54.1768C137.893 55.0459 137.946 55.7588 138.054 56.3154C138.161 56.8623 138.317 57.3408 138.522 57.751V58H134.26C134.055 57.5703 133.898 57.0332 133.791 56.3887C133.693 55.7344 133.645 55.0801 133.645 54.4258ZM134.201 48.3467L134.23 50.7344H131.872C131.315 50.7344 130.832 50.7979 130.422 50.9248C130.012 51.0518 129.675 51.2324 129.411 51.4668C129.147 51.6914 128.952 51.9551 128.825 52.2578C128.708 52.5605 128.649 52.8926 128.649 53.2539C128.649 53.6152 128.732 53.9424 128.898 54.2354C129.064 54.5186 129.304 54.7432 129.616 54.9092C129.929 55.0654 130.295 55.1436 130.715 55.1436C131.35 55.1436 131.901 55.0166 132.37 54.7627C132.839 54.5088 133.2 54.1963 133.454 53.8252C133.718 53.4541 133.854 53.1025 133.864 52.7705L134.978 54.5576C134.821 54.958 134.606 55.373 134.333 55.8027C134.069 56.2324 133.732 56.6377 133.322 57.0186C132.912 57.3896 132.419 57.6973 131.843 57.9414C131.267 58.1758 130.583 58.293 129.792 58.293C128.786 58.293 127.873 58.0928 127.053 57.6924C126.242 57.2822 125.598 56.7207 125.119 56.0078C124.65 55.2852 124.416 54.4648 124.416 53.5469C124.416 52.7168 124.572 51.9795 124.885 51.335C125.197 50.6904 125.656 50.1484 126.262 49.709C126.877 49.2598 127.644 48.9229 128.562 48.6982C129.479 48.4639 130.544 48.3467 131.755 48.3467H134.201ZM145.363 45.4316V58H141.13V42.1504H145.1L145.363 45.4316ZM144.777 49.5186H143.605C143.605 48.415 143.737 47.3994 144.001 46.4717C144.274 45.5342 144.67 44.7236 145.188 44.04C145.715 43.3467 146.364 42.8096 147.136 42.4287C147.907 42.0479 148.801 41.8574 149.816 41.8574C150.52 41.8574 151.164 41.9648 151.75 42.1797C152.336 42.3848 152.839 42.7119 153.259 43.1611C153.688 43.6006 154.021 44.1768 154.255 44.8896C154.489 45.5928 154.606 46.4375 154.606 47.4238V58H150.388V47.8926C150.388 47.1699 150.29 46.6133 150.095 46.2227C149.899 45.832 149.621 45.5586 149.26 45.4023C148.908 45.2461 148.483 45.168 147.985 45.168C147.438 45.168 146.96 45.2803 146.55 45.5049C146.149 45.7295 145.817 46.042 145.554 46.4424C145.29 46.833 145.095 47.292 144.968 47.8193C144.841 48.3467 144.777 48.9131 144.777 49.5186ZM154.211 49.0352L152.702 49.2256C152.702 48.1904 152.829 47.2285 153.083 46.3398C153.347 45.4512 153.732 44.6699 154.24 43.9961C154.758 43.3223 155.397 42.7998 156.159 42.4287C156.921 42.0479 157.8 41.8574 158.796 41.8574C159.558 41.8574 160.251 41.9697 160.876 42.1943C161.501 42.4092 162.033 42.7559 162.473 43.2344C162.922 43.7031 163.264 44.3184 163.498 45.0801C163.742 45.8418 163.864 46.7744 163.864 47.8779V58H159.631V47.8779C159.631 47.1455 159.533 46.5889 159.338 46.208C159.152 45.8174 158.879 45.5488 158.518 45.4023C158.166 45.2461 157.746 45.168 157.258 45.168C156.75 45.168 156.306 45.2705 155.925 45.4756C155.544 45.6709 155.227 45.9443 154.973 46.2959C154.719 46.6475 154.528 47.0576 154.401 47.5264C154.274 47.9854 154.211 48.4883 154.211 49.0352ZM174.426 58.293C173.195 58.293 172.092 58.0977 171.115 57.707C170.139 57.3066 169.309 56.7549 168.625 56.0518C167.951 55.3486 167.434 54.5332 167.072 53.6055C166.711 52.668 166.53 51.6719 166.53 50.6172V50.0312C166.53 48.8301 166.701 47.7314 167.043 46.7354C167.385 45.7393 167.873 44.875 168.508 44.1426C169.152 43.4102 169.934 42.8486 170.852 42.458C171.77 42.0576 172.805 41.8574 173.957 41.8574C175.08 41.8574 176.076 42.043 176.945 42.4141C177.814 42.7852 178.542 43.3125 179.128 43.9961C179.724 44.6797 180.173 45.5 180.476 46.457C180.778 47.4043 180.93 48.459 180.93 49.6211V51.3789H168.332V48.5664H176.784V48.2441C176.784 47.6582 176.677 47.1357 176.462 46.6768C176.257 46.208 175.944 45.8369 175.524 45.5635C175.104 45.29 174.567 45.1533 173.913 45.1533C173.356 45.1533 172.878 45.2754 172.478 45.5195C172.077 45.7637 171.75 46.1055 171.496 46.5449C171.252 46.9844 171.066 47.502 170.939 48.0977C170.822 48.6836 170.764 49.3281 170.764 50.0312V50.6172C170.764 51.252 170.852 51.8379 171.027 52.375C171.213 52.9121 171.472 53.376 171.804 53.7666C172.146 54.1572 172.556 54.46 173.034 54.6748C173.522 54.8896 174.074 54.9971 174.689 54.9971C175.451 54.9971 176.159 54.8506 176.813 54.5576C177.478 54.2549 178.049 53.8008 178.527 53.1953L180.578 55.4219C180.246 55.9004 179.792 56.3594 179.216 56.7988C178.649 57.2383 177.966 57.5996 177.165 57.8828C176.364 58.1562 175.451 58.293 174.426 58.293ZM194.699 52.4189C194.699 52.0381 194.641 51.6963 194.523 51.3936C194.416 51.0811 194.211 50.7979 193.908 50.5439C193.605 50.2803 193.181 50.0215 192.634 49.7676C192.087 49.5137 191.379 49.25 190.51 48.9766C189.543 48.6641 188.625 48.3125 187.756 47.9219C186.896 47.5312 186.135 47.0771 185.471 46.5596C184.816 46.0322 184.299 45.4219 183.918 44.7285C183.547 44.0352 183.361 43.2295 183.361 42.3115C183.361 41.4229 183.557 40.6172 183.947 39.8945C184.338 39.1621 184.885 38.5371 185.588 38.0195C186.291 37.4922 187.121 37.0869 188.078 36.8037C189.045 36.5205 190.104 36.3789 191.257 36.3789C192.829 36.3789 194.201 36.6621 195.373 37.2285C196.545 37.7949 197.453 38.5713 198.098 39.5576C198.752 40.5439 199.079 41.6719 199.079 42.9414H194.714C194.714 42.3164 194.582 41.7695 194.318 41.3008C194.064 40.8223 193.674 40.4463 193.146 40.1729C192.629 39.8994 191.975 39.7627 191.184 39.7627C190.422 39.7627 189.787 39.8799 189.279 40.1143C188.771 40.3389 188.391 40.6465 188.137 41.0371C187.883 41.418 187.756 41.8477 187.756 42.3262C187.756 42.6875 187.844 43.0146 188.02 43.3076C188.205 43.6006 188.479 43.874 188.84 44.1279C189.201 44.3818 189.646 44.6211 190.173 44.8457C190.7 45.0703 191.311 45.29 192.004 45.5049C193.166 45.8564 194.187 46.252 195.065 46.6914C195.954 47.1309 196.696 47.624 197.292 48.1709C197.888 48.7178 198.337 49.3379 198.64 50.0312C198.942 50.7246 199.094 51.5107 199.094 52.3896C199.094 53.3174 198.913 54.1475 198.552 54.8799C198.19 55.6123 197.668 56.2324 196.984 56.7402C196.301 57.248 195.485 57.6338 194.538 57.8975C193.591 58.1611 192.531 58.293 191.359 58.293C190.305 58.293 189.265 58.1562 188.239 57.8828C187.214 57.5996 186.281 57.1748 185.441 56.6084C184.611 56.042 183.947 55.3193 183.449 54.4404C182.951 53.5615 182.702 52.5215 182.702 51.3203H187.111C187.111 51.9844 187.214 52.5459 187.419 53.0049C187.624 53.4639 187.912 53.835 188.283 54.1182C188.664 54.4014 189.113 54.6064 189.631 54.7334C190.158 54.8604 190.734 54.9238 191.359 54.9238C192.121 54.9238 192.746 54.8164 193.234 54.6016C193.732 54.3867 194.099 54.0889 194.333 53.708C194.577 53.3271 194.699 52.8975 194.699 52.4189ZM205.935 35.5V58H201.716V35.5H205.935ZM205.334 49.5186H204.177C204.187 48.415 204.333 47.3994 204.616 46.4717C204.899 45.5342 205.305 44.7236 205.832 44.04C206.359 43.3467 206.989 42.8096 207.722 42.4287C208.464 42.0479 209.284 41.8574 210.183 41.8574C210.964 41.8574 211.672 41.9697 212.307 42.1943C212.951 42.4092 213.503 42.7607 213.962 43.249C214.431 43.7275 214.792 44.3574 215.046 45.1387C215.3 45.9199 215.427 46.8672 215.427 47.9805V58H211.179V47.9512C211.179 47.248 211.076 46.6963 210.871 46.2959C210.676 45.8857 210.388 45.5977 210.007 45.4316C209.636 45.2559 209.177 45.168 208.63 45.168C208.024 45.168 207.507 45.2803 207.077 45.5049C206.657 45.7295 206.32 46.042 206.066 46.4424C205.812 46.833 205.627 47.292 205.51 47.8193C205.393 48.3467 205.334 48.9131 205.334 49.5186ZM217.961 50.2363V49.9287C217.961 48.7666 218.127 47.6973 218.459 46.7207C218.791 45.7344 219.274 44.8799 219.909 44.1572C220.544 43.4346 221.325 42.873 222.253 42.4727C223.181 42.0625 224.245 41.8574 225.446 41.8574C226.647 41.8574 227.717 42.0625 228.654 42.4727C229.592 42.873 230.378 43.4346 231.013 44.1572C231.657 44.8799 232.146 45.7344 232.478 46.7207C232.81 47.6973 232.976 48.7666 232.976 49.9287V50.2363C232.976 51.3887 232.81 52.458 232.478 53.4443C232.146 54.4209 231.657 55.2754 231.013 56.0078C230.378 56.7305 229.597 57.292 228.669 57.6924C227.741 58.0928 226.677 58.293 225.476 58.293C224.274 58.293 223.205 58.0928 222.268 57.6924C221.34 57.292 220.554 56.7305 219.909 56.0078C219.274 55.2754 218.791 54.4209 218.459 53.4443C218.127 52.458 217.961 51.3887 217.961 50.2363ZM222.18 49.9287V50.2363C222.18 50.9004 222.238 51.5205 222.355 52.0967C222.473 52.6729 222.658 53.1807 222.912 53.6201C223.176 54.0498 223.518 54.3867 223.938 54.6309C224.357 54.875 224.87 54.9971 225.476 54.9971C226.062 54.9971 226.564 54.875 226.984 54.6309C227.404 54.3867 227.741 54.0498 227.995 53.6201C228.249 53.1807 228.435 52.6729 228.552 52.0967C228.679 51.5205 228.742 50.9004 228.742 50.2363V49.9287C228.742 49.2842 228.679 48.6787 228.552 48.1123C228.435 47.5361 228.244 47.0283 227.98 46.5889C227.727 46.1396 227.39 45.7881 226.97 45.5342C226.55 45.2803 226.042 45.1533 225.446 45.1533C224.851 45.1533 224.343 45.2803 223.923 45.5342C223.513 45.7881 223.176 46.1396 222.912 46.5889C222.658 47.0283 222.473 47.5361 222.355 48.1123C222.238 48.6787 222.18 49.2842 222.18 49.9287ZM239.787 45.1973V64.0938H235.568V42.1504H239.479L239.787 45.1973ZM249.821 49.8994V50.207C249.821 51.3594 249.685 52.4287 249.411 53.415C249.147 54.4014 248.757 55.2607 248.239 55.9932C247.722 56.7158 247.077 57.2822 246.306 57.6924C245.544 58.0928 244.665 58.293 243.669 58.293C242.702 58.293 241.862 58.0977 241.149 57.707C240.437 57.3164 239.836 56.7695 239.348 56.0664C238.869 55.3535 238.483 54.5283 238.19 53.5908C237.897 52.6533 237.673 51.6475 237.517 50.5732V49.7676C237.673 48.6152 237.897 47.5605 238.19 46.6035C238.483 45.6367 238.869 44.8018 239.348 44.0986C239.836 43.3857 240.432 42.834 241.135 42.4434C241.848 42.0527 242.683 41.8574 243.64 41.8574C244.646 41.8574 245.529 42.0479 246.291 42.4287C247.062 42.8096 247.707 43.3564 248.225 44.0693C248.752 44.7822 249.147 45.6318 249.411 46.6182C249.685 47.6045 249.821 48.6982 249.821 49.8994ZM245.588 50.207V49.8994C245.588 49.2256 245.529 48.6055 245.412 48.0391C245.305 47.4629 245.129 46.96 244.885 46.5303C244.65 46.1006 244.338 45.7686 243.947 45.5342C243.566 45.29 243.103 45.168 242.556 45.168C241.979 45.168 241.486 45.2607 241.076 45.4463C240.676 45.6318 240.349 45.9004 240.095 46.252C239.841 46.6035 239.65 47.0234 239.523 47.5117C239.396 48 239.318 48.5518 239.289 49.167V51.2031C239.338 51.9258 239.475 52.5752 239.699 53.1514C239.924 53.7178 240.271 54.167 240.739 54.499C241.208 54.8311 241.823 54.9971 242.585 54.9971C243.142 54.9971 243.61 54.875 243.991 54.6309C244.372 54.377 244.68 54.0303 244.914 53.5908C245.158 53.1514 245.329 52.6436 245.427 52.0674C245.534 51.4912 245.588 50.8711 245.588 50.207Z" fill="#2D2D36"/>
<path d="M11.9282 11.9282C21.0169 2.83951 44.8412 11.9282 44.8412 11.9282C44.8412 11.9282 68.6655 2.8395 77.7542 11.9282C86.8429 21.0168 77.7542 44.8412 77.7542 44.8412C77.7542 44.8412 86.8429 68.6655 77.7542 77.7542C68.6655 86.8428 44.8412 77.7542 44.8412 77.7542C44.8412 77.7542 21.0169 86.8428 11.9282 77.7542C2.83953 68.6655 11.9282 44.8412 11.9282 44.8412C11.9282 44.8412 2.83953 21.0168 11.9282 11.9282Z" fill="#E5D81B"/>
<path d="M4.88323 44.6716C4.88323 33.6844 24.7774 24.7774 24.7774 24.7774C24.7774 24.7774 33.6844 4.88321 44.6717 4.88321C55.6589 4.88321 64.5659 24.7774 64.5659 24.7774C64.5659 24.7774 84.4601 33.6844 84.4601 44.6716C84.4601 55.6589 64.5659 64.5659 64.5659 64.5659C64.5659 64.5659 55.6589 84.4601 44.6717 84.4601C33.6844 84.4601 24.7774 64.5659 24.7774 64.5659C24.7774 64.5659 4.88323 55.6589 4.88323 44.6716Z" fill="#2D2D36"/>
<path d="M44.646 26.916C49.542 26.916 53.511 35.781 53.511 35.781C53.511 35.781 62.376 39.75 62.376 44.646C62.376 49.542 53.511 53.511 53.511 53.511C53.511 53.511 49.542 62.376 44.646 62.376C39.75 62.376 35.781 53.511 35.781 53.511C35.781 53.511 26.916 49.542 26.916 44.646C26.916 39.75 35.781 35.781 35.781 35.781C35.781 35.781 39.75 26.916 44.646 26.916Z" fill="#E5D81B"/>
</svg>
